# Blender v2.76 (sub 0) OBJ File: ''
# www.blender.org
mtllib untitled.mtl
o Cube
v 20.000000 -0.050000 -19.999998
v 20.000000 -0.050000 20.000000
v -20.000002 -0.050000 19.999996
v -19.999992 -0.050000 -20.000008
v 20.000010 0.050000 -19.999989
v 19.999987 0.050000 20.000011
v -20.000008 0.050000 19.999992
v -19.999998 0.050000 -20.000000
vn 0.000000 -1.000000 0.000000
vn 0.000000 1.000000 0.000000
vn 1.000000 0.000100 0.000000
vn -0.000000 0.000000 1.000000
vn -1.000000 -0.000100 -0.000000
vn 0.000000 0.000100 -1.000000
vn 1.000000 -0.000100 0.000000
vn -0.000000 -0.000100 1.000000
usemtl Material
s off
f 1//1 2//1 3//1
f 8//2 7//2 6//2
f 5//3 6//3 2//3
f 6//4 7//4 3//4
f 3//5 7//5 8//5
f 1//6 4//6 8//6
f 4//1 1//1 3//1
f 5//2 8//2 6//2
f 1//7 5//7 2//7
f 2//8 6//8 3//8
f 4//5 3//5 8//5
f 5//6 1//6 8//6
